<svg xmlns="http://www.w3.org/2000/svg" version="1.1" xmlns:xlink="http://www.w3.org/1999/xlink" xmlns:svgjs="http://svgjs.dev/svgjs" viewBox="0 0 800 800"><g transform="matrix(1,0,0,1,0,0)"><rect width="66" height="66" x="349" y="767" stroke-width="2" stroke="#33cccc" fill="none" opacity="0.17" rx="18" ry="18" transform="rotate(-69, 400, 400)"></rect><rect width="76.9090909090909" height="76.9090909090909" x="317.90909090909093" y="723.4545454545454" stroke-width="2.409090909090909" stroke="#31c3c4" fill="none" opacity="0.24545454545454548" rx="16.90909090909091" ry="16.90909090909091" transform="rotate(-62.72727272727273, 400, 400)"></rect><rect width="87.81818181818181" height="87.81818181818181" x="286.81818181818187" y="679.9090909090909" stroke-width="2.8181818181818183" stroke="#2ebabb" fill="none" opacity="0.3209090909090909" rx="15.818181818181818" ry="15.818181818181818" transform="rotate(-56.45454545454545, 400, 400)"></rect><rect width="98.72727272727272" height="98.72727272727272" x="255.72727272727275" y="636.3636363636364" stroke-width="3.2272727272727275" stroke="#2bb0b3" fill="none" opacity="0.39636363636363636" rx="14.727272727272727" ry="14.727272727272727" transform="rotate(-50.18181818181819, 400, 400)"></rect><rect width="109.63636363636363" height="109.63636363636363" x="224.63636363636363" y="592.8181818181818" stroke-width="3.6363636363636367" stroke="#29a6a9" fill="none" opacity="0.4718181818181818" rx="13.636363636363637" ry="13.636363636363637" transform="rotate(-43.90909090909091, 400, 400)"></rect><rect width="120.54545454545453" height="120.54545454545453" x="193.54545454545456" y="549.2727272727273" stroke-width="4.045454545454545" stroke="#269ba0" fill="none" opacity="0.5472727272727272" rx="12.545454545454547" ry="12.545454545454547" transform="rotate(-37.63636363636364, 400, 400)"></rect><rect width="131.45454545454544" height="131.45454545454544" x="162.45454545454547" y="505.72727272727275" stroke-width="4.454545454545455" stroke="#228f95" fill="none" opacity="0.6227272727272728" rx="11.454545454545455" ry="11.454545454545455" transform="rotate(-31.363636363636367, 400, 400)"></rect><rect width="142.36363636363637" height="142.36363636363637" x="131.36363636363635" y="462.1818181818182" stroke-width="4.863636363636363" stroke="#1f828a" fill="none" opacity="0.6981818181818182" rx="10.363636363636363" ry="10.363636363636363" transform="rotate(-25.090909090909093, 400, 400)"></rect><rect width="153.27272727272725" height="153.27272727272725" x="100.27272727272728" y="418.6363636363636" stroke-width="5.272727272727273" stroke="#1b737e" fill="none" opacity="0.7736363636363637" rx="9.272727272727273" ry="9.272727272727273" transform="rotate(-18.81818181818182, 400, 400)"></rect><rect width="164.1818181818182" height="164.1818181818182" x="69.18181818181819" y="375.090909090909" stroke-width="5.681818181818182" stroke="#166270" fill="none" opacity="0.8490909090909091" rx="8.181818181818183" ry="8.181818181818183" transform="rotate(-12.545454545454547, 400, 400)"></rect><rect width="175.09090909090907" height="175.09090909090907" x="38.09090909090909" y="331.5454545454545" stroke-width="6.090909090909091" stroke="#0f4e61" fill="none" opacity="0.9245454545454546" rx="7.090909090909092" ry="7.090909090909092" transform="rotate(-6.272727272727273, 400, 400)"></rect><rect width="186" height="186" x="7" y="288" stroke-width="6.5" stroke="#00334e" fill="none" opacity="1" rx="6" ry="6" transform="rotate(0, 400, 400)"></rect></g></svg>